<?xml version='1.0' encoding='ASCII' standalone='yes'?>
<svg xmlns="http://www.w3.org/2000/svg" xmlns:ev="http://www.w3.org/2001/xml-events" xmlns:xlink="http://www.w3.org/1999/xlink" baseProfile="full" height="800" version="1.1" width="550">
  <defs/>
  <svg version="1.1" id="female1.5" x="0px" y="0px" viewBox="0 0 800 800" style="enable-background:new 0 0 800 800;" xml:space="preserve">
<style type="text/css">
	.st0{fill:none;stroke:#000000;stroke-width:4;stroke-linecap:round;stroke-miterlimit:10;}
</style>
<title>1.5</title>
<g id="brow">
	<g id="eyebrow">
		<path class="st0" d="M424,389.5c0,0,29.7-27.8,47.1-38.2c7.5-4.5,15.5-8.6,23.9-10.7s25.1,1.3,25.1,1.3"/>
	</g>
	<g id="eyebrow-2">
		<path class="st0" d="M359.1,389.5c0,0-29.7-27.8-47.1-38.2c-7.5-4.5-15.5-8.6-23.9-10.7s-25.1,1.3-25.1,1.3"/>
	</g>
	<path class="st0" d="M359.1,368.5c0,0,12.7,25.3,4.8,30.6"/>
	<path class="st0" d="M421.8,368.3c0,0-12.7,25.3-4.8,30.6"/>
</g>
</svg>
  <svg version="1.1" id="female1.8" x="0px" y="0px" viewBox="0 0 800 800" style="enable-background:new 0 0 800 800;" xml:space="preserve">
<style type="text/css">
	.st0{fill:none;stroke:#000000;stroke-width:4;stroke-linecap:round;stroke-miterlimit:10;}
</style>
<title>nose8</title>
<path id="nose" class="st0" d="M392.9,480c0,0-0.5,16.2-5.5,23.4c-0.5,0.5-0.7,1.1-0.7,1.8c0.1,0.6,1.3,1.6,1.3,1.6l16.5,12.7"/>
</svg>
  <svg version="1.1" id="male-eye&#37835;&#20346;&#30045;3" x="0px" y="0px" viewBox="0 0 800 800" style="enable-background:new 0 0 800 800;" xml:space="preserve">
<style type="text/css">
	.st0{fill:none;stroke:#000000;stroke-width:4;stroke-linecap:round;stroke-linejoin:round;}
	.st1{fill:none;stroke:#000000;stroke-width:4;stroke-miterlimit:10;}
	.st2{fill:none;stroke:#000000;stroke-width:4;stroke-linecap:round;stroke-linejoin:round;stroke-miterlimit:10;}
</style>
<title>eye03</title>
<path class="st0" d="M276.2,417.5c0,0,41.5-29.7,58.7,22.2"/>
<path class="st0" d="M507.3,421.3c0,0-38.9-31.1-59.1,17.5"/>
<path class="st1" d="M472.8,433.9c0.3-0.4,0.8-0.7,1.3-0.8c1.4-0.5,2.7,0.9,2.9,2.2c0.1,0.6,0,1.2-0.3,1.7c-0.7,1.1-2.5,1.2-3.5,0.6  c-0.5-0.3-0.9-0.8-1-1.4C471.9,435.4,472.2,434.6,472.8,433.9z"/>
<path class="st1" d="M471,432.4c0.7-0.8,1.6-1.4,2.5-1.7c2.8-0.9,5.4,1.8,5.8,4.4c0.2,1.2,0,2.5-0.6,3.4c-1.5,2.1-5,2.4-7.1,1.1  c-1-0.6-1.8-1.6-2-2.7C469.3,435.3,469.9,433.6,471,432.4z"/>
<path class="st1" d="M469.4,430.9c1-1.1,2.3-2,3.7-2.4c4.1-1.3,7.8,2.7,8.5,6.5c0.3,1.7,0.1,3.6-0.9,5c-2.2,3.1-7.2,3.5-10.3,1.6  c-1.4-0.9-2.6-2.3-2.9-3.9C466.9,435.2,467.8,432.7,469.4,430.9z"/>
<path class="st1" d="M466.5,428.4c1.5-1.6,3.4-2.9,5.5-3.6c6.1-1.9,11.5,4,12.5,9.6c0.4,2.5,0.1,5.3-1.4,7.4  c-3.2,4.6-10.7,5.2-15.2,2.4c-2.1-1.3-3.8-3.4-4.3-5.8C462.7,434.7,464,431.1,466.5,428.4z"/>
<path class="st1" d="M308.5,432.3c0.3-0.4,0.8-0.7,1.3-0.8c1.4-0.5,2.7,0.9,2.9,2.2c0.1,0.6,0,1.2-0.3,1.7c-0.7,1.1-2.5,1.2-3.5,0.6  c-0.5-0.3-0.9-0.8-1-1.4C307.6,433.8,307.9,433,308.5,432.3z"/>
<path class="st1" d="M306.7,430.8c0.7-0.8,1.6-1.4,2.5-1.7c2.8-0.9,5.4,1.8,5.8,4.4c0.2,1.2,0,2.5-0.6,3.4c-1.5,2.1-5,2.4-7.1,1.1  c-1-0.6-1.8-1.6-2-2.7C305,433.7,305.6,432,306.7,430.8z"/>
<path class="st1" d="M305.1,429.3c1-1.1,2.3-2,3.7-2.4c4.1-1.3,7.8,2.7,8.5,6.5c0.3,1.7,0.1,3.6-0.9,5c-2.2,3.1-7.2,3.5-10.3,1.6  c-1.4-0.9-2.6-2.3-2.9-3.9C302.6,433.6,303.5,431.1,305.1,429.3z"/>
<path class="st1" d="M302.2,426.8c1.5-1.6,3.4-2.9,5.5-3.6c6.1-1.9,11.5,4,12.5,9.6c0.4,2.5,0.1,5.3-1.4,7.4  c-3.2,4.6-10.7,5.2-15.2,2.4c-2.1-1.3-3.8-3.4-4.3-5.8C298.4,433.1,299.7,429.5,302.2,426.8z"/>
<path class="st2" d="M283.8,412.5c0,0-8,0.2-8.6-9.7"/>
<path class="st2" d="M279.4,415c0,0-7.6,2.3-10.9-7"/>
<path class="st2" d="M501.2,416.2c0,0,8,0.6,9.1-9.2"/>
<path class="st2" d="M505.6,419c0,0,7.5,2.7,11.3-6.5"/>
</svg>
  <svg version="1.1" id="female1.9" x="0px" y="0px" viewBox="0 0 800 800" style="enable-background:new 0 0 800 800;" xml:space="preserve">
<style type="text/css">
	.st0{fill:none;stroke:#000000;stroke-width:4;stroke-linecap:round;stroke-linejoin:round;}
</style>
<title>1.9</title>
<g id="mouth_">
	<path class="st0" d="M350.2,592.7c0,0,0.2-2.5,0.5-3.7c1.2-6.2,4.6-11.1,9.6-15.5c13.7-12.2,32.3-18.6,50.4-14.1   c16,3.9,29,15.3,35,30.6c0.1,0.2,0,0.5-0.3,0.6c-0.2,0.1-0.3,0-0.4-0.1c-27.1-21.3-65.2-21.3-92.2,0.2   C351.9,591.3,350.2,592.7,350.2,592.7"/>
	<path class="st0" d="M375,572.8c0,0,1.3-0.9,2-1.3c9-5,26.7-6.7,36.4-2.3c0.9,0.4,2.4,1.3,2.4,1.3"/>
	<path class="st0" d="M349.6,592.1c0,0,0.1-1.2,0.1-1.8c0.6-5.2,2.9-10.8,4.8-15.5c2.4-5.8,6.1-11.6,10.9-15.5   c6.2-5.1,13.7-11.1,21.6-7.3c7,3.3,11.9-4.5,19-3.9c3.6,0.3,7.2,3.5,10.2,5.5c12.4,8.2,22.3,21.9,28.8,35.3   c0.4,0.9,1.2,2.6,1.2,2.6"/>
	<path class="st0" d="M350.2,592.7c0,0,2.4-1.2,3.6-1.7c25.8-11.5,59.6-10.2,86.8-1.5c1.4,0.4,5.6,1.9,5.6,1.9"/>
</g>
</svg>
</svg>
