<?xml version='1.0' encoding='ASCII' standalone='yes'?>
<svg xmlns="http://www.w3.org/2000/svg" xmlns:ev="http://www.w3.org/2001/xml-events" xmlns:xlink="http://www.w3.org/1999/xlink" baseProfile="full" height="800" version="1.1" width="550">
  <defs/>
  <svg version="1.1" id="female1.18" x="0px" y="0px" viewBox="0 0 800 800" style="enable-background:new 0 0 800 800;" xml:space="preserve">
<style type="text/css">
	.st0{fill:none;stroke:#000000;stroke-width:4;stroke-linecap:round;stroke-miterlimit:10;}
</style>
<title>brow18</title>
<g id="eyebrow">
	<path class="st0" d="M356.7,354.6c0,0-4.4,9.2-8.5,10.7c-3.6,1.4-6.8-0.5-10.4-1.6c-3.5-1-7.1-1.9-10.6-2.5   c-7-1.2-14.2-1.6-21.3-1.2c-14.4,1-28.3,5.3-40.7,12.5c-9,5.3-25.2,20.4-25.2,20.4"/>
	<path class="st0" d="M240,392.9c0,0,25.4-37.9,39.4-42.5c21-7,43.5-8.3,65.2-0.9c4.1,1.4,12.1,5.1,12.1,5.1"/>
	<path class="st0" d="M423.7,353.3c0,0,13.7,24.7,17.3,24.1c4.2-0.6,7.5-5.6,10.8-9.1c3.3-3.5,6.9-6.7,10.6-9.8   c7-5.8,14.7-10.7,22.9-14.5c15.9-7.4,32.7-10.2,49.1-7.9c3.5,0.5,10.5,2.2,10.5,2.2"/>
	<path class="st0" d="M544.9,338.4c0,0-5.1-3.9-8.1-5.6c-12.2-6.9-28.8-11.1-39.7-7.8c-20.3,6-38.6,17.3-53.3,32.5   c-4.5,4.7-18.8-4.9-18.8-4.9"/>
	<path class="st0" d="M363.2,345.8c0,0,5.7,2.1,7.2,5.1c2.4,4.6-0.9,11.2-9,15.7"/>
</g>
</svg>
  <svg version="1.1" id="female1.12" x="0px" y="0px" viewBox="0 0 800 800" style="enable-background:new 0 0 800 800;" xml:space="preserve">
<style type="text/css">
	.st0{fill:none;stroke:#000000;stroke-width:4;stroke-linecap:round;stroke-linejoin:round;stroke-miterlimit:10;}
</style>
<title>nose12</title>
<g id="nose">
	<path class="st0" d="M394.4,517.8c0,0,7.8,1.8,10.3-1.2s2.6-11,2.6-11"/>
	<path class="st0" d="M390.1,517.6c0,0-7.8,1.8-10.3-1.2s-2.6-11-2.6-11"/>
</g>
</svg>
  <svg version="1.1" id="male-eye&#26497;&#31616;3" x="0px" y="0px" viewBox="0 0 800 800" style="enable-background:new 0 0 800 800;" xml:space="preserve">
<style type="text/css">
	.st0{fill:none;stroke:#000000;stroke-width:4;stroke-linecap:round;stroke-linejoin:round;}
	.st1{fill:none;stroke:#000000;stroke-width:4;stroke-miterlimit:10;}
	.st2{fill:none;stroke:#000000;stroke-width:4;stroke-linecap:round;stroke-linejoin:round;stroke-miterlimit:10;}
</style>
<title>eye03</title>
<path class="st0" d="M277.9,427.4c0,0,28.2-42.5,62.8-0.1"/>
<path class="st0" d="M505.6,429.4c0,0-27.5-41.5-61.6-1.5"/>
<path class="st1" d="M480.8,433.9c0.3-0.4,0.8-0.7,1.3-0.8c1.4-0.5,2.7,0.9,2.9,2.2c0.1,0.6,0,1.2-0.3,1.7c-0.7,1.1-2.5,1.2-3.5,0.6  c-0.5-0.3-0.9-0.8-1-1.4C479.9,435.4,480.2,434.6,480.8,433.9z"/>
<path class="st1" d="M479,432.4c0.7-0.8,1.6-1.4,2.5-1.7c2.8-0.9,5.4,1.8,5.8,4.4c0.2,1.2,0,2.5-0.6,3.4c-1.5,2.1-5,2.4-7.1,1.1  c-1-0.6-1.8-1.6-2-2.7C477.3,435.3,477.9,433.6,479,432.4z"/>
<path class="st1" d="M477.4,430.9c1-1.1,2.3-2,3.7-2.4c4.1-1.3,7.8,2.7,8.5,6.5c0.3,1.7,0.1,3.6-0.9,5c-2.2,3.1-7.2,3.5-10.3,1.6  c-1.4-0.9-2.6-2.3-2.9-3.9C474.9,435.2,475.8,432.7,477.4,430.9z"/>
<path class="st1" d="M474.5,428.4c1.5-1.6,3.4-2.9,5.5-3.6c6.1-1.9,11.5,4,12.5,9.6c0.4,2.5,0.1,5.3-1.4,7.4  c-3.2,4.6-10.7,5.2-15.2,2.4c-2.1-1.3-3.8-3.4-4.3-5.8C470.7,434.7,472,431.1,474.5,428.4z"/>
<path class="st1" d="M316.5,432.3c0.3-0.4,0.8-0.7,1.3-0.8c1.4-0.5,2.7,0.9,2.9,2.2c0.1,0.6,0,1.2-0.3,1.7c-0.7,1.1-2.5,1.2-3.5,0.6  c-0.5-0.3-0.9-0.8-1-1.4C315.6,433.8,315.9,433,316.5,432.3z"/>
<path class="st1" d="M314.7,430.8c0.7-0.8,1.6-1.4,2.5-1.7c2.8-0.9,5.4,1.8,5.8,4.4c0.2,1.2,0,2.5-0.6,3.4c-1.5,2.1-5,2.4-7.1,1.1  c-1-0.6-1.8-1.6-2-2.7C313,433.7,313.6,432,314.7,430.8z"/>
<path class="st1" d="M313.1,429.3c1-1.1,2.3-2,3.7-2.4c4.1-1.3,7.8,2.7,8.5,6.5c0.3,1.7,0.1,3.6-0.9,5c-2.2,3.1-7.2,3.5-10.3,1.6  c-1.4-0.9-2.6-2.3-2.9-3.9C310.6,433.6,311.5,431.1,313.1,429.3z"/>
<path class="st1" d="M310.2,426.8c1.5-1.6,3.4-2.9,5.5-3.6c6.1-1.9,11.5,4,12.5,9.6c0.4,2.5,0.1,5.3-1.4,7.4  c-3.2,4.6-10.7,5.2-15.2,2.4c-2.1-1.3-3.8-3.4-4.3-5.8C306.4,433.1,307.7,429.5,310.2,426.8z"/>
<path class="st2" d="M283.2,420c0,0-7.4,3-11.5-6"/>
<path class="st2" d="M279.9,423.9c0,0-6.3,4.9-12.7-2.7"/>
<path class="st2" d="M501.4,422.7c0,0,7.4,3,11.5-6"/>
<path class="st2" d="M504.7,426.7c0,0,6.3,4.9,12.7-2.7"/>
</svg>
  <svg version="1.1" id="female1.16" x="0px" y="0px" viewBox="0 0 800 800" style="enable-background:new 0 0 800 800;" xml:space="preserve">
<style type="text/css">
	.st0{fill:none;stroke:#000000;stroke-width:4;stroke-linecap:round;stroke-miterlimit:10;}
</style>
<title>mouth16</title>
<g id="mouth">
	<path class="st0" d="M436,553.7c0,0-22.5-18.8-62.8,9.8c-0.6,0.4-3.8,2.4-3.8,2.4l-18.1,10.4c0,0,1.9,0.7,2.8,0.9   c10.7,2.4,21.3-5.1,21.3-5.1s32.7-20.4,57.8-18.7"/>
</g>
<path class="st0" d="M419.2,540.5c0,0,17-2,24.1,8.1"/>
</svg>
</svg>
