<?xml version='1.0' encoding='ASCII' standalone='yes'?>
<svg xmlns="http://www.w3.org/2000/svg" xmlns:ev="http://www.w3.org/2001/xml-events" xmlns:xlink="http://www.w3.org/1999/xlink" baseProfile="full" height="800" version="1.1" width="550">
  <defs/>
  <svg version="1.1" id="female1.14" x="0px" y="0px" viewBox="0 0 800 800" style="enable-background:new 0 0 800 800;" xml:space="preserve">
<style type="text/css">
	.st0{fill:none;stroke:#000000;stroke-width:4;stroke-linecap:round;stroke-linejoin:round;}
</style>
<title>brow14</title>
<g id="brow">
	<g id="eyebrow">
		<path class="st0" d="M254.3,369c0,0,6.3,0.9,9.2,1.3c87.5,11.7,81.6-19.8,81.6-19.8"/>
		<path class="st0" d="M345.1,350.6c0,0-41.8,15.2-76.5,18c-5,0.4-14.4,0.4-14.4,0.4"/>
	</g>
	<g id="eyebrow-2">
		<path class="st0" d="M540,369c0,0-10.9,1.6-15.9,2.2c-80.6,9.3-75-20.6-75-20.6"/>
		<path class="st0" d="M449.1,350.6c0,0,38.4,13.9,72.2,17.6c6.5,0.7,18.7,0.8,18.7,0.8"/>
	</g>
</g>
</svg>
  <svg version="1.1" id="female1.11" x="0px" y="0px" viewBox="0 0 800 800" style="enable-background:new 0 0 800 800;" xml:space="preserve">
<style type="text/css">
	.st0{fill:none;stroke:#000000;stroke-width:4;stroke-linecap:round;stroke-linejoin:round;}
</style>
<title>nose11</title>
<path id="nose" class="st0" d="M391,494.6c0,0-4.4,5.2-6.3,8c-0.5,0.7-1,1.6-1.1,2.5c-0.1,2.1,2.1,3.5,4.1,4.2  c4.8,1.5,14.9,1.2,14.9,1.2"/>
</svg>
  <svg version="1.1" id="male-eye&#37835;&#20346;&#30045;3" x="0px" y="0px" viewBox="0 0 800 800" style="enable-background:new 0 0 800 800;" xml:space="preserve">
<style type="text/css">
	.st0{fill:none;stroke:#000000;stroke-width:4;stroke-linecap:round;stroke-linejoin:round;}
	.st1{fill:none;stroke:#000000;stroke-width:4;stroke-miterlimit:10;}
	.st2{fill:none;stroke:#000000;stroke-width:4;stroke-linecap:round;stroke-linejoin:round;stroke-miterlimit:10;}
</style>
<title>eye03</title>
<path class="st0" d="M277.9,419.4c0,0,28.2-42.5,62.8-0.1"/>
<path class="st0" d="M505.6,421.4c0,0-27.5-41.5-61.6-1.5"/>
<path class="st1" d="M472.8,433.9c0.3-0.4,0.8-0.7,1.3-0.8c1.4-0.5,2.7,0.9,2.9,2.2c0.1,0.6,0,1.2-0.3,1.7c-0.7,1.1-2.5,1.2-3.5,0.6  c-0.5-0.3-0.9-0.8-1-1.4C471.9,435.4,472.2,434.6,472.8,433.9z"/>
<path class="st1" d="M471,432.4c0.7-0.8,1.6-1.4,2.5-1.7c2.8-0.9,5.4,1.8,5.8,4.4c0.2,1.2,0,2.5-0.6,3.4c-1.5,2.1-5,2.4-7.1,1.1  c-1-0.6-1.8-1.6-2-2.7C469.3,435.3,469.9,433.6,471,432.4z"/>
<path class="st1" d="M469.4,430.9c1-1.1,2.3-2,3.7-2.4c4.1-1.3,7.8,2.7,8.5,6.5c0.3,1.7,0.1,3.6-0.9,5c-2.2,3.1-7.2,3.5-10.3,1.6  c-1.4-0.9-2.6-2.3-2.9-3.9C466.9,435.2,467.8,432.7,469.4,430.9z"/>
<path class="st1" d="M466.5,428.4c1.5-1.6,3.4-2.9,5.5-3.6c6.1-1.9,11.5,4,12.5,9.6c0.4,2.5,0.1,5.3-1.4,7.4  c-3.2,4.6-10.7,5.2-15.2,2.4c-2.1-1.3-3.8-3.4-4.3-5.8C462.7,434.7,464,431.1,466.5,428.4z"/>
<path class="st1" d="M308.5,432.3c0.3-0.4,0.8-0.7,1.3-0.8c1.4-0.5,2.7,0.9,2.9,2.2c0.1,0.6,0,1.2-0.3,1.7c-0.7,1.1-2.5,1.2-3.5,0.6  c-0.5-0.3-0.9-0.8-1-1.4C307.6,433.8,307.9,433,308.5,432.3z"/>
<path class="st1" d="M306.7,430.8c0.7-0.8,1.6-1.4,2.5-1.7c2.8-0.9,5.4,1.8,5.8,4.4c0.2,1.2,0,2.5-0.6,3.4c-1.5,2.1-5,2.4-7.1,1.1  c-1-0.6-1.8-1.6-2-2.7C305,433.7,305.6,432,306.7,430.8z"/>
<path class="st1" d="M305.1,429.3c1-1.1,2.3-2,3.7-2.4c4.1-1.3,7.8,2.7,8.5,6.5c0.3,1.7,0.1,3.6-0.9,5c-2.2,3.1-7.2,3.5-10.3,1.6  c-1.4-0.9-2.6-2.3-2.9-3.9C302.6,433.6,303.5,431.1,305.1,429.3z"/>
<path class="st1" d="M302.2,426.8c1.5-1.6,3.4-2.9,5.5-3.6c6.1-1.9,11.5,4,12.5,9.6c0.4,2.5,0.1,5.3-1.4,7.4  c-3.2,4.6-10.7,5.2-15.2,2.4c-2.1-1.3-3.8-3.4-4.3-5.8C298.4,433.1,299.7,429.5,302.2,426.8z"/>
<path class="st2" d="M283.2,412c0,0-7.4,3-11.5-6"/>
<path class="st2" d="M279.9,415.9c0,0-6.3,4.9-12.7-2.7"/>
<path class="st2" d="M501.4,414.7c0,0,7.4,3,11.5-6"/>
<path class="st2" d="M504.7,418.7c0,0,6.3,4.9,12.7-2.7"/>
</svg>
  <svg version="1.1" id="female1.3" x="0px" y="0px" viewBox="0 0 800 800" style="enable-background:new 0 0 800 800;" xml:space="preserve">
<style type="text/css">
	.st0{fill:none;stroke:#000000;stroke-width:4;stroke-linecap:round;stroke-linejoin:round;}
</style>
<title>mouth3</title>
<g id="mouth">
	<path class="st0" d="M335,599.7c0,0,19.6-12.6,31.1-15.5c31-7.7,94.8-1.6,94.8-1.6"/>
	<path class="st0" d="M346.5,592.8c0,0,18.9-25.1,31.3-29.9c11.4-4.4,24.4-3.4,36,0.3s30.2,18,30.2,18"/>
	<path class="st0" d="M342.4,595.1c0,0,8-12,9.3-14.3c3.5-6,6.5-12.6,11-17.8c5.7-6.5,12.8-6.8,20.8-7c4.2-0.1,7.4-2.6,11.3-3.7   c11.1-3.2,20.6-0.4,29.4,8.3c4,3.9,7.5,8.3,11.4,12.2c2.7,2.7,16,9,12,8.7c-3.6-0.2-56.1,16.8-103.3,13.4"/>
</g>
</svg>
</svg>
