<?xml version='1.0' encoding='ASCII' standalone='yes'?>
<svg xmlns="http://www.w3.org/2000/svg" xmlns:ev="http://www.w3.org/2001/xml-events" xmlns:xlink="http://www.w3.org/1999/xlink" baseProfile="full" height="800" version="1.1" width="550">
  <defs/>
  <svg version="1.1" id="female1.13" x="0px" y="0px" viewBox="0 0 800 800" style="enable-background:new 0 0 800 800;" xml:space="preserve">
<style type="text/css">
	.st0{fill:none;stroke:#000000;stroke-width:4;stroke-linecap:round;stroke-linejoin:round;}
</style>
<title>brow13</title>
<g id="eyebrow">
	<g id="eyebrow2">
		<path class="st0" d="M353.8,373.2c0,0-4.3,0.2-6.4,0.2c-12.4-0.1-24.7-2.5-36.2-7.2c-22-9.1-57.2,0.5-64.9,9.4    s25.7-33.9,52.5-30.2c22,3,38.1,12.9,48.9,22.1C349.9,369.5,353.8,373.2,353.8,373.2z"/>
	</g>
	<g id="eyebrow2-2">
		<path class="st0" d="M434.8,371.2c0,0,7,0.2,10.5,0c11-0.5,21.8-2.8,32.1-6.7c22-8.6,57.2,0.3,64.9,8.7s-25.6-31.8-52.3-28.3    c-18.1,2.4-35.2,9.7-49.3,21.2C438.7,367.7,434.8,371.2,434.8,371.2z"/>
	</g>
</g>
</svg>
  <svg version="1.1" id="female1.10" x="0px" y="0px" viewBox="0 0 800 800" style="enable-background:new 0 0 800 800;" xml:space="preserve">
<style type="text/css">
	.st0{fill:none;stroke:#000000;stroke-width:4;stroke-linecap:round;stroke-miterlimit:10;}
</style>
<title>nose10</title>
<path id="nose" class="st0" d="M372.6,510.8c4.2,0.8,8.3,2.7,12.4,4.1c9.6,3.2,17.5,0,25.4-5.7c0.8-0.6,1.7-1.4,1.5-2.4  c-0.1-0.6-0.6-1-1-1.3c-2.7-2.3-8.2-6.5-8.2-6.5"/>
</svg>
  <svg version="1.1" id="female-eye-&#37835;&#20346;&#30045;" x="0px" y="0px" viewBox="0 0 800 800" style="enable-background:new 0 0 800 800;" xml:space="preserve">
<style type="text/css">
	.st0{fill:#FFFFFF;stroke:#000000;stroke-width:4;stroke-linecap:round;stroke-linejoin:round;}
	.st1{fill:none;stroke:#000000;stroke-width:4;stroke-miterlimit:10;}
</style>
<title>eye01</title>
<path class="st0" d="M303.2,424.3c0,0-5.6,2.5-7.5-4.3"/>
<path class="st0" d="M485.8,426.8c0,0,5.9,2.7,7.6-4.9"/>
<path class="st1" d="M473,429.4c0.3-0.4,0.8-0.7,1.3-0.8c1.4-0.5,2.7,0.9,2.9,2.2c0.1,0.6,0,1.2-0.3,1.7c-0.7,1.1-2.5,1.2-3.5,0.6  c-0.5-0.3-0.9-0.8-1-1.4C472.1,430.9,472.4,430.1,473,429.4z"/>
<path class="st1" d="M471.2,427.9c0.7-0.8,1.6-1.4,2.5-1.7c2.8-0.9,5.4,1.8,5.8,4.4c0.2,1.2,0,2.5-0.6,3.4c-1.5,2.1-5,2.4-7.1,1.1  c-1-0.6-1.8-1.6-2-2.7C469.5,430.8,470.1,429.1,471.2,427.9z"/>
<path class="st1" d="M469.6,426.4c1-1.1,2.3-2,3.7-2.4c4.1-1.3,7.8,2.7,8.5,6.5c0.3,1.7,0.1,3.6-0.9,5c-2.2,3.1-7.2,3.5-10.3,1.6  c-1.4-0.9-2.6-2.3-2.9-3.9C467.1,430.7,468,428.2,469.6,426.4z"/>
<path class="st1" d="M466.7,423.9c1.5-1.6,3.4-2.9,5.5-3.6c6.1-1.9,11.5,4,12.5,9.6c0.4,2.5,0.1,5.3-1.4,7.4  c-3.2,4.6-10.7,5.2-15.2,2.4c-2.1-1.3-3.8-3.4-4.3-5.8C462.9,430.2,464.2,426.6,466.7,423.9z"/>
<path class="st1" d="M310.7,429.8c0.3-0.4,0.8-0.7,1.3-0.8c1.4-0.5,2.7,0.9,2.9,2.2c0.1,0.6,0,1.2-0.3,1.7c-0.7,1.1-2.5,1.2-3.5,0.6  c-0.5-0.3-0.9-0.8-1-1.4C309.8,431.3,310.1,430.5,310.7,429.8z"/>
<path class="st1" d="M308.9,428.3c0.7-0.8,1.6-1.4,2.5-1.7c2.8-0.9,5.4,1.8,5.8,4.4c0.2,1.2,0,2.5-0.6,3.4c-1.5,2.1-5,2.4-7.1,1.1  c-1-0.6-1.8-1.6-2-2.7C307.2,431.2,307.8,429.5,308.9,428.3z"/>
<path class="st1" d="M307.3,426.8c1-1.1,2.3-2,3.7-2.4c4.1-1.3,7.8,2.7,8.5,6.5c0.3,1.7,0.1,3.6-0.9,5c-2.2,3.1-7.2,3.5-10.3,1.6  c-1.4-0.9-2.6-2.3-2.9-3.9C304.8,431.1,305.7,428.6,307.3,426.8z"/>
<path class="st1" d="M304.4,424.3c1.5-1.6,3.4-2.9,5.5-3.6c6.1-1.9,11.5,4,12.5,9.6c0.4,2.5,0.1,5.3-1.4,7.4  c-3.2,4.6-10.7,5.2-15.2,2.4c-2.1-1.3-3.8-3.4-4.3-5.8C300.6,430.6,301.9,427,304.4,424.3z"/>
</svg>
  <svg version="1.1" id="female1.15" x="0px" y="0px" viewBox="0 0 800 800" style="enable-background:new 0 0 800 800;" xml:space="preserve">
<style type="text/css">
	.st0{fill:none;stroke:#000000;stroke-width:4;stroke-linecap:round;stroke-linejoin:round;}
</style>
<title>mouth15</title>
<g id="mouth_">
	<path class="st0" d="M333.8,539.7c0,0,4.2,3.8,6.6,5.5c31.4,22.4,96.8,23.4,119.3-8.4c0.1-0.2,0.5-0.1,0.4,0.1   c-9.3,24-24.2,46.5-57.8,48.5c-36.5,2.2-61.1-16.3-70.6-43.2c-0.8-2.4-2.2-7.4-2.2-7.4"/>
	<path class="st0" d="M329.6,535.6c0,0,17.9,9.4,21.4,10.4c4.2,1.4,8.5,2.2,12.9,2.2c5.7,0,8.4,1.1,13.5,3   c7.3,2.7,17.4,5.2,25.1,2.8c4.6-1.5,7.6-4.2,12.7-4.8c4.5-0.5,8.8,0.6,13.2,0.4c11.1-0.7,21.6-4.9,30-12.1c0.3-0.2,0.8-0.7,0.8-0.7   "/>
	<path class="st0" d="M335.4,547.7c0,0,2,7.5,3.4,9.8c2.3,3.4,4.8,6.7,7.6,9.7c6,6.8,12.1,13.7,19.9,19.1   c16.6,11.5,42.4,12.1,59.5,0.8c2.7-1.7,5.1-3.8,7.1-6.2c6.6-7.7,16.8-23.6,16.8-23.6"/>
</g>
</svg>
</svg>
