<?xml version='1.0' encoding='ASCII' standalone='yes'?>
<svg xmlns="http://www.w3.org/2000/svg" xmlns:ev="http://www.w3.org/2001/xml-events" xmlns:xlink="http://www.w3.org/1999/xlink" baseProfile="full" height="800" version="1.1" width="550">
  <defs/>
  <svg version="1.1" id="female1.6" x="0px" y="0px" viewBox="0 0 800 800" style="enable-background:new 0 0 800 800;" xml:space="preserve">
<style type="text/css">
	.st0{fill:none;stroke:#000000;stroke-width:4;stroke-linecap:round;stroke-linejoin:round;}
</style>
<title>brow06</title>
<g id="eyebrow">
	<path class="st0" d="M517,361.8c-11-2-22.8-3-33.9-1.2s-21.6,5.2-32.7,6c-8.7,0.6-26,2.2-26,2.2s14.9-8.5,24.1-12.1   c14.3-5.6,36.3-7.2,54.6-4.4C521.5,355.1,540,370,540,370l-4.7-2.4C535.3,367.6,521.1,362.5,517,361.8z"/>
	<path class="st0" d="M265.9,360.8c11-2,22.8-3,33.9-1.2s21.6,5.2,32.7,6c8.7,0.6,26,2.2,26,2.2s-14.9-8.5-24.1-12.1   c-14.3-5.6-36.3-7.2-54.6-4.4S242.9,369,242.9,369l4.6-2.4C247.6,366.6,259.6,362.3,265.9,360.8z"/>
</g>
</svg>
  <svg version="1.1" id="female1.19" x="0px" y="0px" viewBox="0 0 800 800" style="enable-background:new 0 0 800 800;" xml:space="preserve">
<style type="text/css">
	.st0{fill:none;stroke:#000000;stroke-width:4;stroke-linecap:round;stroke-linejoin:round;}
</style>
<title>nose19</title>
<path id="nose" class="st0" d="M404.8,509.7c0,0-12.2,12.1-25.1,1.5"/>
</svg>
  <svg version="1.1" id="female-eye-&#37835;&#20346;&#30045;" x="0px" y="0px" viewBox="0 0 800 800" style="enable-background:new 0 0 800 800;" xml:space="preserve">
<style type="text/css">
	.st0{fill:#FFFFFF;stroke:#000000;stroke-width:4;stroke-linecap:round;stroke-linejoin:round;}
	.st1{fill:none;stroke:#000000;stroke-width:4;stroke-miterlimit:10;}
</style>
<title>eye01</title>
<path class="st0" d="M303.2,424.3c0,0-5.6,2.5-7.5-4.3"/>
<path class="st0" d="M485.8,426.8c0,0,5.9,2.7,7.6-4.9"/>
<path class="st1" d="M473,429.4c0.3-0.4,0.8-0.7,1.3-0.8c1.4-0.5,2.7,0.9,2.9,2.2c0.1,0.6,0,1.2-0.3,1.7c-0.7,1.1-2.5,1.2-3.5,0.6  c-0.5-0.3-0.9-0.8-1-1.4C472.1,430.9,472.4,430.1,473,429.4z"/>
<path class="st1" d="M471.2,427.9c0.7-0.8,1.6-1.4,2.5-1.7c2.8-0.9,5.4,1.8,5.8,4.4c0.2,1.2,0,2.5-0.6,3.4c-1.5,2.1-5,2.4-7.1,1.1  c-1-0.6-1.8-1.6-2-2.7C469.5,430.8,470.1,429.1,471.2,427.9z"/>
<path class="st1" d="M469.6,426.4c1-1.1,2.3-2,3.7-2.4c4.1-1.3,7.8,2.7,8.5,6.5c0.3,1.7,0.1,3.6-0.9,5c-2.2,3.1-7.2,3.5-10.3,1.6  c-1.4-0.9-2.6-2.3-2.9-3.9C467.1,430.7,468,428.2,469.6,426.4z"/>
<path class="st1" d="M466.7,423.9c1.5-1.6,3.4-2.9,5.5-3.6c6.1-1.9,11.5,4,12.5,9.6c0.4,2.5,0.1,5.3-1.4,7.4  c-3.2,4.6-10.7,5.2-15.2,2.4c-2.1-1.3-3.8-3.4-4.3-5.8C462.9,430.2,464.2,426.6,466.7,423.9z"/>
<path class="st1" d="M310.7,429.8c0.3-0.4,0.8-0.7,1.3-0.8c1.4-0.5,2.7,0.9,2.9,2.2c0.1,0.6,0,1.2-0.3,1.7c-0.7,1.1-2.5,1.2-3.5,0.6  c-0.5-0.3-0.9-0.8-1-1.4C309.8,431.3,310.1,430.5,310.7,429.8z"/>
<path class="st1" d="M308.9,428.3c0.7-0.8,1.6-1.4,2.5-1.7c2.8-0.9,5.4,1.8,5.8,4.4c0.2,1.2,0,2.5-0.6,3.4c-1.5,2.1-5,2.4-7.1,1.1  c-1-0.6-1.8-1.6-2-2.7C307.2,431.2,307.8,429.5,308.9,428.3z"/>
<path class="st1" d="M307.3,426.8c1-1.1,2.3-2,3.7-2.4c4.1-1.3,7.8,2.7,8.5,6.5c0.3,1.7,0.1,3.6-0.9,5c-2.2,3.1-7.2,3.5-10.3,1.6  c-1.4-0.9-2.6-2.3-2.9-3.9C304.8,431.1,305.7,428.6,307.3,426.8z"/>
<path class="st1" d="M304.4,424.3c1.5-1.6,3.4-2.9,5.5-3.6c6.1-1.9,11.5,4,12.5,9.6c0.4,2.5,0.1,5.3-1.4,7.4  c-3.2,4.6-10.7,5.2-15.2,2.4c-2.1-1.3-3.8-3.4-4.3-5.8C300.6,430.6,301.9,427,304.4,424.3z"/>
</svg>
  <svg version="1.1" id="female1.15" x="0px" y="0px" viewBox="0 0 800 800" style="enable-background:new 0 0 800 800;" xml:space="preserve">
<style type="text/css">
	.st0{fill:none;stroke:#000000;stroke-width:4;stroke-linecap:round;stroke-miterlimit:10;}
</style>
<title>mouth15</title>
<g id="mouth">
	<path class="st0" d="M351.3,567.6c0,0,1.2,0.5,1.5,0.6c24.7,9.6,52.4,2.2,77.9,2.8c0.6,0,2.8,0.1,2.8,0.1"/>
	<path class="st0" d="M354.1,568.6c0,0,1.3-0.8,1.7-1.1c6.4-3.9,14.1-6.2,19.7-5.4c8,1.2,14.2,3.9,22.5,0.9   c9.3-3.4,23.4,0.1,30.3,6.4c0.2,0.2,0.9,0.9,0.9,0.9"/>
	<path class="st0" d="M354.1,568.6c0,0,0.6,0.3,0.8,0.5c4,5.6,10.5,10.9,16.5,14.2c9,5,19,5.9,29.1,3.8c9.8-2,18.9-7.4,26.1-14.2   c0.9-0.8,2.6-2.7,2.6-2.7"/>
</g>
</svg>
</svg>
